<svg version="1.0" viewBox="0 0 300 100" xmlns="http://www.w3.org/2000/svg">
 <g>
  <path d="m136.79 7.0176c-0.12885 0.38641-0.2576 7.9857-0.2576 16.959 0 15.971 0 16.272 0.85867 16.272 0.81574 0 0.85867-0.34348 0.94455-14.855l0.12885-14.812 10.004 15.07c7.5134 11.377 10.175 15.07 10.733 14.941 0.68695-0.1288 0.72987-1.4168 0.85868-17.002 0.0858-16.572 0.0858-16.83-0.7728-16.83-0.81574 0-0.85868 0.34347-0.94456 14.898l-0.12884 14.941-9.8318-14.812c-10.819-16.272-10.948-16.444-11.592-14.769z"/>
  <path d="m8.5428 8.1768c-2.6619 1.8032-2.7478 2.2326-2.7478 15.542 0 13.309 0.085924 13.739 2.7478 15.542 1.4168 0.94454 1.8032 0.98747 9.9606 0.98747 8.2433 0 8.5438-0.04296 8.5438-0.85868 0-0.81574-0.30054-0.85868-8.1574-0.85868-8.6297 0-9.8748-0.21467-10.69-2.0179-0.64401-1.4598-0.64401-24.172 0-25.631 0.7728-1.6744 2.4901-1.9749 10.948-1.9749 7.5993 0 7.8998-0.042957 7.8998-0.85868 0-0.81574-0.30054-0.85867-8.5438-0.85867-8.1574 0-8.5438 0.042957-9.9606 0.98748z"/>
  <path d="m30.911 23.719c0 16.229 0 16.529 0.85868 16.529 0.81574 0 0.85866-0.30054 0.85866-7.2558v-7.2558l1.2021 1.0304c0.64401 0.55814 4.9374 3.8211 9.5313 7.2558 7.0841 5.2808 8.5867 6.2254 9.8748 6.2254 1.3739-0.04296 1.4168-0.08592 0.64401-0.55815-0.51521-0.30053-4.2504-3.0483-8.3721-6.1395-4.1216-3.0912-7.9427-5.8819-8.4579-6.2254-0.55815-0.34347-0.98749-0.72987-0.98749-0.94454 0-0.17173 3.263-0.30053 7.2558-0.30053 10.605 0.08592 11.335-0.42934 11.592-8.5009 0.17173-5.796-0.51521-8.2433-2.7048-9.5742-1.2021-0.72988-2.2326-0.81574-11.292-0.81574h-10.004zm19.921-14.383c1.8032 0.68694 2.4043 2.4472 2.4043 7.2987 0 4.5939-0.55813 6.4401-2.1038 7.2987-0.5152 0.2576-4.2934 0.42934-9.1449 0.42934-5.9249 0-8.4579 0.1288-8.8443 0.5152-0.3864 0.38642-0.51521-1.3309-0.51521-7.7281v-8.2433h8.5438c4.7227 0 9.059 0.17173 9.6601 0.42934z"/>
  <path d="m61.952 8.048c-2.8766 1.7174-2.9195 1.932-3.0483 14.984-0.21466 17.689-0.55813 17.216 12.751 17.216 8.3291 0 8.6297-0.04296 8.6297-0.85868 0-0.81574-0.30054-0.85868-8.1574-0.85868-5.0232 0-8.5009-0.17173-9.1449-0.47226-1.6744-0.77282-2.0179-2.1467-2.0179-8.3291v-5.7961h9.6601c9.3596 0 9.6601-0.04296 9.6601-0.85868 0-0.81574-0.30054-0.85866-9.6601-0.85866h-9.6601v-5.1521c0-5.7531 0.3864-7.0411 2.2755-7.7281 0.72988-0.21467 4.7656-0.42934 9.1449-0.42934 7.5993 0 7.8998-0.042957 7.8998-0.85868 0-0.81574-0.30054-0.85867-8.458-0.85867-7.6851 0-8.6297 0.085809-9.8747 0.85867z"/>
  <path d="m83.72 23.719v16.529h9.6601c10.733 0 11.549-0.17173 13.095-2.7048 0.81574-1.288 0.85866-2.2326 0.85866-13.825 0-17.345 0.72989-16.529-14.168-16.529h-9.4454zm19.707-14.168c2.1037 1.0733 2.2326 2.0179 2.1037 14.941-0.12884 11.678-0.12884 11.893-1.1163 12.837-0.94455 0.94454-1.2451 0.98747-9.9606 1.1163l-9.0161 0.1288v-29.667h8.3721c6.5259 0 8.6726 0.1288 9.6171 0.64401z"/>
  <path d="m114.42 8.1768c-2.619 1.4598-2.7478 2.2755-2.7478 15.542 0 12.88 0.17172 13.996 2.4902 15.542 1.4168 0.94454 1.8032 0.98747 10.175 0.98747 8.4579 0 8.7585-0.04296 8.7585-0.85868 0-0.81574-0.30055-0.85868-8.5009-0.85868-11.377 0-11.377 0.04296-11.163-9.0161l0.12884-5.3667 9.7889-0.1288c9.4025-0.08592 9.746-0.12882 9.746-0.94455 0-0.81574-0.30054-0.85867-9.8748-0.85867h-9.8748v-4.7227c0-5.6673 0.55814-7.3846 2.576-8.1145 0.85868-0.30054 4.508-0.47228 9.2737-0.47228 7.5993 0 7.8998-0.042957 7.8998-0.85868 0-0.81574-0.30054-0.85867-8.4579-0.85867-8.0286 0-8.5868 0.085809-10.218 0.98748z"/>
  <path d="m164.44 8.048c0 0.81574 0.34345 0.85868 9.6171 0.94455l9.6172 0.1288-5.0232 7.4275c-2.7478 4.0358-7.2129 10.733-10.004 14.769-3.9928 5.9249-4.8944 7.5563-4.5939 8.1574 0.38641 0.72987 1.288 0.7728 11.12 0.7728 10.433 0 10.733-0.04296 10.733-0.85868 0-0.81574-0.34345-0.85868-9.8318-0.94454l-9.8318-0.12882 4.9374-7.2987c13.825-20.394 14.769-21.853 14.64-22.712-0.12885-0.9016-0.38641-0.9016-10.733-1.0304-10.39-0.085809-10.648-0.085809-10.648 0.7728z"/>
  <path d="m200.93 8.048c0 0.81574 0.30054 0.85868 7.8998 0.85868 9.0161 0 10.347 0.30054 11.249 2.4043 0.81573 1.975 0.77279 7.9857-0.043 9.6172-1.1163 2.1896-2.5331 2.576-9.0161 2.576-6.8694 0-7.9857 0.3864-9.2737 3.1342-0.64399 1.5027-0.81575 2.8336-0.81575 7.6851v5.9249h10.733c10.433 0 10.733-0.04296 10.733-0.85868 0-0.81574-0.34345-0.85868-9.703-0.94454l-9.703-0.12882 0.043-5.2379c0-7.8569-0.12884-7.7281 9.746-7.9427 4.4222-0.1288 5.839-0.30053 6.7406-0.9016 2.1467-1.4168 2.619-2.6619 2.7907-7.3846 0.17175-3.7352 0.043-4.6798-0.72986-6.3971-1.331-3.0483-2.1896-3.263-12.279-3.263-8.0715 0-8.3721 0.042957-8.3721 0.85867z"/>
  <path d="m227.55 23.719c0 16.229 0 16.529 0.85868 16.529 0.85867 0 0.85867-0.30054 0.85867-16.529 0-16.229 0-16.529-0.85867-16.529-0.85868 0-0.85868 0.30053-0.85868 16.529z"/>
  <path d="m249.01 8.048c0 0.81574 0.30053 0.85868 7.8998 0.85868 4.3363 0 8.415 0.21467 9.1449 0.42934 1.8462 0.64401 2.7048 2.7478 2.7048 6.6977 0 6.5689-1.1592 7.4705-9.7889 7.4705-5.4955 0-6.0966 0.08592-7.4275 0.98747-2.0608 1.3739-2.4902 3.0483-2.4902 9.8318l-0.043 5.9249h10.733c10.433 0 10.733-0.04296 10.733-0.85868 0-0.81574-0.30055-0.85868-9.8748-0.85868h-9.8748v-5.0662c0-4.2075 0.12885-5.2379 0.85868-6.3971 0.98749-1.6315 1.5886-1.7603 9.2737-1.932 6.0966-0.17173 7.127-0.5152 8.6297-2.7907 0.644-0.94454 0.77282-2.1038 0.77282-5.9249 0-5.7102-0.51521-7.2129-2.8336-8.415-1.4597-0.72988-2.576-0.81574-10.046-0.81574-8.0715 0-8.3721 0.042957-8.3721 0.85867z"/>
  <path d="m274.35 8.048c0 0.81574 0.30053 0.85868 7.8998 0.85868 9.0161 0 10.347 0.30054 11.249 2.4043 0.81575 1.975 0.77281 7.9857-0.043 9.6172-1.1163 2.1896-2.5331 2.576-9.0161 2.576-6.8694 0-7.9857 0.3864-9.2737 3.1342-0.64399 1.5027-0.81574 2.8336-0.81574 7.6851v5.9249h10.733c10.433 0 10.733-0.04296 10.733-0.85868 0-0.81574-0.30055-0.85868-9.8748-0.85868h-9.8748v-5.0662c0-4.2075 0.12884-5.2379 0.85866-6.3971 0.98748-1.6315 1.5886-1.7603 9.2737-1.932 6.0966-0.17173 7.127-0.5152 8.6297-2.7907 1.1163-1.7174 1.1163-10.433 0-12.494-1.288-2.3614-2.619-2.6619-12.107-2.6619-8.0715 0-8.3721 0.042957-8.3721 0.85867z"/>
  <path d="m233.56 24.363c0 0.81574 0.30053 0.85868 5.796 0.85868 5.4955 0 5.7961-0.04296 5.7961-0.85868 0-0.81574-0.30055-0.85868-5.7961-0.85868-5.4955 0-5.796 0.04296-5.796 0.85868z"/>
  <path d="m77.151 50.595c-1.0304 1.6315-6.8694 16.744-6.5689 17.002 0.42935 0.47227 0.9875-0.3864 1.8462-2.6619l0.81573-2.1467 4.4651-0.1288 4.508-0.1288 1.0304 2.619c0.55812 1.4168 1.288 2.576 1.6315 2.576 0.30054 0 0.55814-0.08592 0.55814-0.17173 0-0.47226-6.9123-17.216-7.2558-17.56-0.25761-0.2576-0.64401 0-1.0304 0.60107zm3.263 7.3417 1.4598 3.7782h-4.0358c-3.0912 0-4.0358-0.1288-3.864-0.55814 0.12885-0.2576 0.94454-2.3614 1.8032-4.5939 0.85869-2.2326 1.6744-4.2504 1.8032-4.4651 0.2576-0.42934 0.85867 0.81574 2.8336 5.839z"/>
  <path d="m156.02 50.681c-0.0858 0.30054-0.12884 4.2075-0.0858 8.6297 0.0858 6.0537 0.25762 8.1574 0.68693 8.3291 0.38643 0.1288 0.51522-1.288 0.51522-6.0966v-6.2683h1.7174c0.94454 0 1.7173-0.21467 1.7173-0.42934 0-0.2576-0.7728-0.42934-1.7173-0.42934h-1.7174v-2.1467c0-1.975-0.60107-2.8766-1.1163-1.5886z"/>
  <path d="m198.35 50.552c0 0.25761 1.1592 0.42934 2.576 0.42934h2.576v8.3721c0 5.152 0.17174 8.3721 0.42935 8.3721 0.25758 0 0.47225-3.263 0.51519-8.2862l0.12884-8.2433 2.7048-0.1288c1.5456-0.08592 2.576-0.30053 2.4472-0.5152-0.34346-0.55814-11.377-0.55814-11.377 0z"/>
  <path d="m162.98 52.227c-0.17174 0.30053-0.21467 0.64401-0.0859 0.7728 0.38639 0.3864 0.81573-0.17173 0.60107-0.7728-0.17175-0.47228-0.25762-0.47228-0.51523 0z"/>
  <path d="m162.72 60.856c0 4.2934 0.17175 6.8694 0.42933 6.8694 0.2576 0 0.42935-2.576 0.42935-6.8694 0-4.2934-0.17175-6.8694-0.42935-6.8694-0.25758 0-0.42933 2.576-0.42933 6.8694z"/>
  <path d="m86.725 59.998c0 5.4097 0.043 5.6673 1.0734 6.6547 0.9016 0.94454 1.4168 1.0733 4.4222 1.0733 2.7907 0 3.6064-0.17173 4.551-0.9016 1.1163-0.85868 1.1163-0.94455 1.1163-6.6547 0-3.5635-0.17174-5.7531-0.42934-5.7531s-0.42934 2.0608-0.42934 5.3667c0 6.6547-0.2576 7.0841-4.4222 7.0841-4.4222 0-4.5939-0.25761-4.5939-6.9123 0-4.6368-0.08589-5.5385-0.64401-5.5385-0.55814 0-0.64401 0.90161-0.64401 5.5814z"/>
  <path d="m100.51 55.533c-0.7728 0.98748-0.90162 1.7603-0.90162 5.1521 0 6.3113 0.68696 7.0411 6.6548 7.0411 3.8211 0 4.0358 0.1288 3.1771 1.8462-0.7728 1.4598-1.2021 1.5885-5.6243 1.5885-2.5331 0-4.2075 0.17175-4.2075 0.42934 0 0.2576 1.8462 0.42934 4.6798 0.42934 4.551 0 4.7227-0.04296 5.5814-1.1163 0.81574-1.0304 0.90161-1.7174 0.90161-7.6851 0-5.9678-0.0859-6.6547-0.90161-7.6851-0.81573-1.0733-1.0734-1.1163-4.6798-1.1163-3.6064 0-3.864 0.04296-4.6798 1.1163zm8.7585 0.77282c0.51518 0.7728 0.64401 2.0179 0.55813 5.6672l-0.12884 4.6798-3.3918 0.1288c-2.4902 0.08592-3.6064-0.04296-4.3792-0.55813-0.98747-0.64401-1.0304-0.90161-1.0304-5.2808 0-3.0483 0.17172-4.8086 0.51521-5.152 0.30053-0.30053 1.8462-0.5152 3.864-0.5152 3.0483 0 3.3918 0.08592 3.9928 1.0304z"/>
  <path d="m113.77 55.275c-0.77283 0.7728-0.85868 1.4168-0.85868 6.6547 0 3.5635 0.17171 5.796 0.42933 5.796 0.2576 0 0.42935-2.1467 0.42935-5.5384 0-6.3113 0.25758-6.9123 2.9624-6.9123 2.6619 0 3.0054 0.72987 3.1342 6.7835 0.17174 7.0411 0.94453 6.9123 1.1163-0.21467 0.043-3.0912 0.30054-5.6673 0.60108-6.0107 0.644-0.7728 3.9928-0.72987 4.8086 0.1288 0.55814 0.51521 0.68693 1.7603 0.68693 6.2254 0 3.3918 0.17174 5.5384 0.42934 5.5384s0.42933-2.2755 0.42933-5.9248c0-5.2379-0.0859-6.0537-0.7728-6.6547-1.0734-0.98748-5.3238-0.98748-6.0966-0.08592-0.51521 0.60107-0.644 0.60107-1.288 0-1.1163-0.98747-4.9374-0.85868-6.0107 0.21467z"/>
  <path d="m131.12 55.017c-0.68695 0.55814-0.81574 1.2451-0.94455 5.5814-0.17173 4.8086-0.12885 4.9803 0.94455 6.0537 0.98746 0.98748 1.3309 1.0733 5.3667 1.0733 2.4043 0 4.4222-0.17173 4.551-0.42934 0.17174-0.2576-1.288-0.42933-4.0358-0.42933-3.907 0-4.3792-0.08592-5.195-0.94455-0.98748-1.0733-0.98748-2.4043 0-2.9624 0.34345-0.21467 2.576-1.2021 4.9374-2.2755 3.7352-1.6315 4.2934-2.0179 4.4222-3.0054 0.0859-0.72988-0.21467-1.4597-0.94454-2.1896-0.98747-0.98748-1.4168-1.0733-4.6798-1.0733-2.4043 0-3.864 0.21467-4.4222 0.60107zm8.6297 1.6744c0.47227 1.4168 0.51519 1.4168-4.8086 3.7782-1.932 0.85868-3.6064 1.4597-3.7352 1.331-0.17175-0.12882-0.25762-1.288-0.25762-2.576 0-3.5206 0.60106-3.9928 4.8944-3.864 3.3488 0.1288 3.4776 0.17173 3.907 1.331z"/>
  <path d="m143.57 55.017c-0.72986 0.55814-0.81574 1.2451-0.94454 6.6547-0.0859 4.1216 0 6.0537 0.30053 6.0537 0.30054 0 0.47229-1.8462 0.47229-5.4955 0-6.8694 0.0858-6.9553 4.8515-6.9553 4.551 0 4.5939 0.04296 4.5939 6.9123 0 3.3918 0.17174 5.5384 0.42934 5.5384s0.42934-2.1896 0.42934-5.7102c0-7.5993 0-7.5993-5.3238-7.5993-2.7478 0-4.2075 0.17173-4.8086 0.60107z"/>
  <path d="m167.18 55.318c-0.68693 0.7728-0.81574 1.7173-0.94454 6.6977-0.12885 4.6798-0.043 5.7531 0.42933 5.6243 0.42935-0.17173 0.60107-1.5885 0.68695-5.7102 0.043-3.1771 0.30052-5.7531 0.60106-6.0966 0.30053-0.3864 1.5456-0.55813 3.8211-0.55813 4.6798 0 4.6798 0 4.6798 6.9123 0 3.3918 0.17173 5.5384 0.42935 5.5384 0.2576 0 0.42934-2.2755 0.42934-5.9248 0-7.4705 0.043-7.3846-5.4526-7.3846-3.3918 0-3.9499 0.1288-4.6798 0.90161z"/>
  <path d="m180.92 54.76c-1.0734 0.72988-1.4598 2.4043-1.4598 6.5259 0 4.0358 0.0858 4.4222 1.0734 5.3667 0.94454 0.98748 1.3739 1.0733 4.9374 1.0733 3.8211 0 3.864 0 3.864 1.0304 0 1.975-0.94454 2.4043-5.6243 2.4043-2.5331 0-4.2504 0.17175-4.2504 0.42934 0 0.47228 8.0286 0.60107 9.2308 0.17174 1.5027-0.60108 1.932-2.4902 1.932-8.8873 0-5.6243-0.0859-6.3113-0.90161-7.3417-0.81574-1.0733-1.0733-1.1163-4.5939-1.1163-2.0608 0-3.9499 0.17173-4.2075 0.34347zm7.5993 0.94455c0.72988 0.42933 0.81574 0.94454 0.81574 5.796v5.3667h-3.5206c-1.9749 0-3.7782-0.17174-4.0358-0.34348-1.0304-0.68693-1.4598-2.3614-1.4598-5.7531 0-4.9803 0.3864-5.4955 4.3363-5.4955 1.6744 0 3.3918 0.21467 3.864 0.42934z"/>
  <path d="m211.02 55.49c-0.98749 0.94454-1.0734 1.3309-1.0734 5.152 0 4.6368 0.30052 5.4955 2.2326 6.483 1.975 1.0304 6.483 0.68694 7.771-0.60107 0.85869-0.85867 0.94454-1.3739 0.94454-5.4096 0-4.1646-0.0858-4.551-1.0304-5.5814-0.94454-1.0304-1.3739-1.1163-4.4222-1.1163-3.0054 0-3.5206 0.1288-4.4222 1.0733zm8.2003 0.85866c0.42933 0.55815 0.60107 2.0608 0.60107 4.6798 0 4.9803-0.34347 5.4097-4.2504 5.4097-1.5456 0-3.0483-0.17173-3.3059-0.34348-1.0304-0.644-1.4598-2.3184-1.4598-5.4526 0-2.9195 0.12885-3.3918 1.1163-4.3792 0.98748-0.98747 1.331-1.0733 3.907-0.90161 2.1038 0.1288 2.9624 0.3864 3.3918 0.98748z"/>
  <path d="m224.11 55.275c-0.77281 0.7728-0.85868 1.4168-0.85868 6.6547 0 3.5635 0.17175 5.796 0.42935 5.796s0.42933-2.1467 0.42933-5.5384c0-6.3113 0.25761-6.9123 2.9624-6.9123 2.7478 0 3.0483 0.72987 3.0483 6.9982 0 4.551 0.0859 5.4526 0.64401 5.4526 0.55815 0 0.64401-0.9016 0.64401-5.7102 0-3.864 0.17174-5.8819 0.5152-6.2254 0.77283-0.7728 4.0358-0.64401 4.8086 0.17173 0.55814 0.51521 0.68696 1.7603 0.68696 6.2254 0 3.3918 0.17172 5.5384 0.42933 5.5384 0.2576 0 0.42933-2.2755 0.42933-5.9248 0-5.2379-0.0858-6.0537-0.77279-6.6547-1.0734-0.98748-5.3238-0.98748-6.0966-0.08592-0.51519 0.60107-0.64401 0.60107-1.288 0-1.1163-0.98747-4.9374-0.85868-6.0107 0.21467z"/>
  <path d="m241.2 55.79c-1.2451 1.3739-1.288 1.4168-1.1163 5.4097 0.12884 3.907 0.17173 4.0358 1.5456 5.2808 1.2451 1.1163 1.7173 1.2451 4.1646 1.2451 2.4472 0 2.9195-0.1288 4.1646-1.2451 1.331-1.2022 1.4168-1.4168 1.5456-4.7227 0.30054-5.9678-0.81574-7.3417-5.839-7.3417-3.0054 0-3.22 0.08592-4.4651 1.3739zm8.5009 0.55814c0.3864 0.55815 0.60107 2.0179 0.60107 4.508 0 4.8944-0.55814 5.5814-4.5081 5.5814-4.0357 0-4.508-0.60107-4.508-5.5814 0-3.3488 0.12885-3.9928 0.90161-4.7656 0.7728-0.7728 1.288-0.90161 3.907-0.72988 2.3184 0.1288 3.1342 0.34348 3.6064 0.98748z"/>
  <path d="m254.21 55.533c-0.81575 1.0304-0.90162 1.7174-0.90162 6.6977 0 4.2504 0.12884 5.5385 0.55814 5.4097 0.34348-0.1288 0.55814-1.7603 0.644-5.7102 0.043-3.1771 0.30054-5.7531 0.60107-6.0966 0.25761-0.30054 0.9875-0.55813 1.6744-0.55813 0.68694 0 1.2451-0.21467 1.2451-0.42934 0-0.2576-0.64402-0.42934-1.4598-0.42934-1.0733 0-1.7173 0.30053-2.3613 1.1163z"/>
  <path d="m260.61 55.275c-0.77282 0.7728-0.85869 1.4168-0.85869 6.6547 0 3.5635 0.17175 5.796 0.42935 5.796s0.42934-2.1037 0.42934-5.4955c0-6.0966 0.34347-6.9553 2.7048-6.9553 0.644 0 1.1592-0.21467 1.1592-0.42934 0-0.81574-2.9624-0.47228-3.864 0.42934z"/>
  <path d="m266.88 55.747c-0.98749 1.1592-1.1163 1.6744-1.1163 4.8944 0 1.975 0.17173 4.0787 0.42935 4.6798 0.64401 1.7174 2.7048 2.5331 5.9248 2.3184 2.3613-0.17173 2.9195-0.34348 3.7782-1.3739 0.94451-1.0733 1.0304-1.5456 1.0304-5.4526 0-3.9928-0.0858-4.3792-1.0734-5.3238-0.90159-0.94455-1.4168-1.0733-4.4651-1.0733-3.263 0-3.4347 0.04296-4.508 1.3309zm8.1145 0.60107c0.98748 0.94455 1.0733 1.3739 1.0733 4.551 0 3.0483-0.12884 3.6923-0.94454 4.551-0.7728 0.81574-1.331 0.98747-3.6923 0.98747-4.0358 0-4.3792-0.3864-4.3792-5.4526 0-5.1091 0.47228-5.7102 4.2934-5.7102 2.1896 0 2.7907 0.17173 3.6494 1.0733z"/>
  <path d="m278.85 55.146c0.17172 0.42934 1.0733 3.3918 2.0179 6.5689 0.94453 3.1771 1.8462 5.9678 2.0608 6.1825 0.51521 0.5152 1.3739-1.4168 2.8336-6.2683 0.68692-2.3184 1.3309-4.2075 1.4598-4.2075 0.2576 0 3.0054 8.5868 3.0054 9.3166 0 0.2576 0.25759 0.68694 0.60108 0.94455 0.51519 0.42932 0.77279 0.08581 1.5027-1.8891 0.51521-1.331 0.90162-2.5331 0.90162-2.7478 0-0.17174 0.60107-2.1467 1.288-4.3363 1.5027-4.6798 1.4597-4.2934 0.68694-4.2934-0.3864 0-1.0733 1.5456-1.9749 4.3792-2.1038 6.8265-2.0179 6.6547-2.2755 5.9249-0.17173-0.34347-0.85868-2.6619-1.5886-5.152-1.3739-4.6368-1.8461-5.6243-2.5331-4.9374-0.21468 0.2576-1.1163 2.7478-1.975 5.5814-1.3739 4.3363-1.6744 4.9803-1.975 4.0787-0.17172-0.60107-0.94455-3.0483-1.6744-5.4955-0.94455-3.1342-1.5027-4.3792-1.975-4.3792s-0.60107 0.21467-0.38639 0.72987z"/>
  <path d="m238.5 77.686c-0.12884 0.34348-0.17172 3.9499-0.12884 8.0715 0.0858 5.4955 0.2576 7.4705 0.68694 7.6422 0.64398 0.21467 0.77281-15.585 0.0858-16.014-0.2576-0.1288-0.5152 0-0.64402 0.30053z"/>
  <path d="m210.37 85.543c0 5.0232 0.17173 7.9427 0.42934 7.9427 0.25759 0 0.42933-2.9195 0.42933-7.9427 0-5.0233-0.17174-7.9427-0.42933-7.9427-0.25761 0-0.42934 2.9195-0.42934 7.9427z"/>
  <path d="m213.16 78.03c0.12886 0.25759 2.0608 0.42934 4.2504 0.42934 4.7656 0 5.0662 0.21466 4.8944 3.5206l-0.12884 2.2755-2.6619 0.1288c-1.975 0.08592-2.7048 0.30054-2.7048 0.72988 0 0.42934 0.72988 0.64401 2.7048 0.72987l2.6619 0.1288v6.0107l-4.508 0.21467c-5.7531 0.2576-5.6672 1.0733 0.12885 1.0733 3.9499 0 4.2934-0.08592 5.0662-1.0304 0.98746-1.2021 1.1163-4.4222 0.21466-6.0966-0.47227-0.94455-0.47227-1.288 0-2.1467 0.85867-1.5456 0.72988-3.9499-0.30053-5.2808-0.85867-1.0733-1.0304-1.1163-5.3667-1.1163-2.9195 0-4.4222 0.17173-4.2504 0.42934z"/>
  <path d="m241.72 81.035v3.4347h3.9928c2.1467 0 4.2075 0.17173 4.508 0.3864 0.38642 0.21467 0.51522 1.288 0.42933 3.7352l-0.12883 3.3918-4.4222 0.1288c-3.263 0.08592-4.3792 0.25761-4.2504 0.64401 0.0858 0.34347 1.4597 0.55814 4.0358 0.64401 5.152 0.17173 5.839-0.34347 6.0536-4.4651 0.12884-2.5331 0.043-3.1342-0.77283-4.1646-0.85866-1.1163-1.1163-1.1592-4.551-1.1592h-3.6064v-5.152h4.508c2.7048 0 4.508-0.17175 4.508-0.42934 0-0.2576-2.0179-0.42934-5.1521-0.42934h-5.152z"/>
  <path d="m264.08 78.545c-1.7173 4.4651-4.8944 12.279-5.195 12.88-0.55814 0.94454-0.55814 2.0608-0.043 2.0608 0.21467 0 0.81573-1.0733 1.3739-2.3614l0.98748-2.3614h3.7352c4.0787 0 4.0358 0 5.1091 2.7478 0.60108 1.5456 1.7174 2.619 1.7174 1.6744 0-0.21467-1.331-3.7782-3.0054-7.8998-3.0054-7.5134-3.907-8.8014-4.6798-6.7406zm2.7048 4.6368c0.85868 2.1467 1.5456 4.0787 1.5456 4.2934 0 0.25761-1.3739 0.42934-3.22 0.42934-1.8032 0-3.22-0.17173-3.22-0.42934 0-0.34346 0.90162-2.8766 2.5331-6.9982 0.25759-0.64401 0.5152-1.1592 0.64401-1.1592 0.0858 0 0.85866 1.7603 1.7173 3.864z"/>
  <path d="m294.95 85.543c0 5.0232 0.17172 7.9427 0.42933 7.9427s0.42935-2.9195 0.42935-7.9427c0-5.0233-0.17174-7.9427-0.42935-7.9427s-0.42933 2.9195-0.42933 7.9427z"/>
  <path d="m290.66 79.747c0 0.21467 0.21467 0.42934 0.42935 0.42934 0.2576 0 0.42933-0.21467 0.42933-0.42934 0-0.2576-0.17173-0.42934-0.42933-0.42934-0.21468 0-0.42935 0.17173-0.42935 0.42934z"/>
  <path d="m274.22 82.409-1.2021 1.1592 0.12883 6.7406c0.0859 4.9374 0.2576 6.7835 0.68693 6.9553 0.34348 0.08581 0.51523-0.42934 0.51523-1.8032v-1.975h3.3488c4.8944 0 5.2379-0.42933 5.2379-6.1825 0-5.4955-0.25759-5.839-4.551-5.9678-2.7048-0.1288-3.0483-0.04296-4.1646 1.0733zm7.3417 0.42934c0.34346 0.34346 0.5152 1.9749 0.5152 4.4222s-0.17174 4.0787-0.5152 4.4222c-0.30053 0.30054-1.8462 0.51521-3.864 0.51521h-3.3488v-4.4222c0-2.8766 0.17173-4.5939 0.51521-4.9374 0.30054-0.30054 1.7173-0.51521 3.3488-0.51521 1.6315 0 3.0483 0.21467 3.3488 0.51521z"/>
  <path d="m286.8 81.379c-1.932 0.60107-2.1467 1.288-2.1467 6.8265 0 3.22 0.17173 5.2808 0.42935 5.2808 0.2576 0 0.42931-1.9749 0.42931-5.0662 0-5.4955 0.21469-6.0966 2.2755-6.0966 0.72986 0 1.1592-0.21466 1.0733-0.5152-0.21466-0.55814-1.1163-0.72987-2.0608-0.42934z"/>
  <path d="m290.96 81.336c-0.47228 0.47228-0.34347 12.15 0.12884 12.15 0.2576 0 0.42933-2.3614 0.42933-6.2254 0-3.4347-0.043-6.2254-0.12884-6.2254-0.0859 0-0.30055 0.1288-0.42935 0.30053z"/>
  <path d="m225.7 85.157c-0.77279 0.7728-0.0858 1.0304 2.5331 1.0304 2.0608 0 2.7907-0.1288 2.6619-0.55814-0.21469-0.55814-4.6798-0.98747-5.195-0.47226z"/>
 </g>
</svg>
