<svg version="1.0" xmlns="http://www.w3.org/2000/svg"
viewBox="0 0 960.000000 960.000000" preserveAspectRatio="xMidYMin">

<g transform="translate(0.000000,960.000000) scale(0.100000,-0.100000)"
fill="#000000" stroke="none">

<path d="M4915 9517 c-11 -7 -47 -23 -80 -36 -148 -59 -244 -161 -309 -331
-21 -55 -21 -57 -24 -1310 l-2 -1255 -1263 -5 c-1180 -5 -1265 -6 -1307 -23
-177 -71 -302 -212 -339 -386 -8 -37 -11 -443 -11 -1373 0 -1456 -3 -1377 62
-1501 62 -115 159 -198 287 -243 l66 -24 1247 0 c757 0 1249 -4 1253 -9 3 -5
5 -560 5 -1233 0 -1346 -2 -1300 62 -1421 43 -82 146 -184 223 -221 121 -58
50 -56 1474 -56 1449 0 1374 -3 1491 63 76 43 171 141 207 212 67 133 63 39
63 1479 0 1152 -2 1316 -16 1383 -39 188 -158 327 -340 396 l-59 22 -1257 3
-1258 3 0 1154 0 1155 1233 0 c1063 0 1241 2 1296 15 181 43 322 182 377 370
16 55 17 164 21 1365 5 1435 7 1382 -55 1514 -53 112 -181 227 -291 260 -25 8
-63 21 -83 30 -34 14 -171 16 -1345 16 -1050 0 -1312 -3 -1328 -13z" id = "credenz-logo"/>

<!-- <path d="M4837 8480 c-76 -29 -132 -82 -169 -158 l-33 -67 -3 -772 -3 -773
-777 -2 -777 -3 -51 -27 c-60 -32 -118 -93 -148 -157 -21 -46 -21 -49 -21
-886 l0 -840 26 -55 c37 -80 72 -115 147 -152 l67 -33 767 -3 767 -3 3 -772 3
-772 28 -57 c16 -33 49 -76 78 -102 89 -80 40 -76 953 -76 521 0 824 4 848 10
90 25 181 118 210 213 10 32 13 230 13 862 l0 820 -29 62 c-33 72 -94 134
-164 166 -47 22 -52 22 -820 25 l-772 3 2 702 3 702 775 5 c767 5 776 5 821
26 56 26 121 88 148 142 40 78 42 134 39 952 -3 731 -5 788 -22 832 -27 71
-99 146 -173 180 l-63 28 -812 0 c-771 -1 -815 -2 -861 -20z" id="main-logo"/>

<path d="M4556 2543 c-3 -4 -6 -134 -6 -290 0 -243 2 -283 15 -283 12 0 15 38
17 257 l3 257 173 -263 c101 -155 177 -261 185 -258 9 3 13 73 15 290 2 250 0
287 -13 287 -13 0 -15 -37 -17 -257 l-3 -257 -170 257 c-93 141 -175 258 -182
261 -6 3 -14 2 -17 -1z"/>
<path d="M2340 2527 c-19 -7 -40 -23 -47 -37 -17 -33 -18 -438 -2 -474 20 -42
74 -56 219 -56 109 0 130 2 130 15 0 13 -23 15 -144 15 -205 0 -191 -19 -191
260 0 279 -14 260 191 260 121 0 144 2 144 15 0 13 -21 15 -132 14 -76 0 -148
-5 -168 -12z"/>
<path d="M2715 2527 c-10 -25 0 -557 10 -560 6 -1 11 45 13 121 1 67 4 122 6
122 2 0 79 -56 171 -125 152 -113 196 -140 195 -117 -1 4 -56 47 -123 95 -67
48 -138 101 -157 117 l-35 29 132 1 c132 0 133 0 165 29 32 29 33 31 36 123 5
162 -17 178 -251 178 -118 0 -159 -3 -162 -13z m351 -25 c24 -15 34 -54 34
-126 0 -84 -13 -124 -44 -131 -12 -3 -87 -6 -169 -7 l-147 -3 0 138 0 137 158
0 c86 0 162 -4 168 -8z"/>
<path d="M3265 2526 c-58 -25 -60 -31 -63 -256 -5 -306 -2 -310 233 -310 113
0 135 2 135 15 0 13 -23 15 -145 15 -142 0 -147 1 -170 25 -23 23 -25 31 -25
130 l0 105 170 0 c104 0 170 4 170 10 0 6 -67 11 -167 12 l-168 3 -3 91 c-2
79 0 94 18 117 l21 27 150 0 c126 0 149 2 149 15 0 13 -22 15 -137 15 -91 -1
-148 -5 -168 -14z"/>
<path d="M3630 2250 l0 -292 168 4 c184 3 212 11 233 66 6 15 9 112 7 239 l-3
213 -28 27 -27 28 -175 3 -175 4 0 -292z m366 236 c11 -16 14 -65 14 -237 l0
-218 -26 -20 c-24 -19 -40 -21 -175 -21 l-149 0 0 261 0 260 161 -3 c145 -3
162 -5 175 -22z"/>
<path d="M4193 2533 c-12 -2 -34 -18 -48 -34 l-25 -31 0 -213 c0 -228 4 -253
48 -276 34 -19 313 -20 319 -1 4 9 -30 12 -144 12 -143 0 -150 1 -171 23 -20
21 -22 34 -22 130 l0 107 170 0 c107 0 170 4 170 10 0 6 -63 10 -170 10 l-170
0 0 98 c0 141 -6 136 182 142 192 6 203 24 16 26 -73 1 -143 0 -155 -3z"/>
<path d="M5040 2525 c0 -13 25 -15 165 -15 91 0 165 -2 165 -5 0 -3 -76 -118
-170 -256 -93 -138 -170 -257 -170 -264 0 -22 26 -25 201 -25 144 0 169 2 169
15 0 13 -25 15 -166 15 -146 0 -165 2 -160 15 3 9 80 126 172 261 136 201 164
248 154 259 -19 22 -360 22 -360 0z"/>
<path d="M5677 2534 c-18 -18 17 -24 149 -24 129 0 146 -2 163 -19 38 -38 41
-172 6 -211 -16 -18 -31 -20 -122 -20 -179 0 -206 -26 -201 -198 l3 -97 183
-3 c157 -2 182 0 182 13 0 13 -24 15 -170 15 l-170 0 0 95 c0 88 2 98 25 120
23 23 31 25 130 25 163 0 185 18 185 156 0 95 -16 129 -68 143 -40 12 -285 15
-295 5z"/>
<path d="M6135 2527 c-3 -7 -4 -136 -3 -286 2 -209 6 -275 16 -279 9 -3 12 59
12 287 0 193 -3 291 -10 291 -6 0 -13 -6 -15 -13z"/>
<path d="M6510 2525 c0 -13 23 -15 149 -15 l150 0 21 -27 c19 -25 21 -38 18
-111 -4 -108 -9 -112 -140 -112 -173 0 -198 -24 -198 -195 l0 -105 182 2 c134
2 182 6 186 16 3 9 -35 12 -167 12 l-171 0 0 99 c0 96 1 100 26 120 23 18 41
21 124 21 159 0 181 17 187 140 5 94 -14 139 -67 157 -20 7 -93 12 -167 12
-112 1 -133 -1 -133 -14z"/>
<path d="M6950 2525 c0 -13 23 -15 150 -15 190 0 190 0 190 -125 0 -119 -7
-125 -140 -125 -175 0 -200 -25 -200 -200 l0 -100 182 2 c134 2 182 6 186 16
3 9 -35 12 -167 12 l-171 0 0 99 c0 96 1 100 26 120 23 18 41 21 131 21 129 0
157 12 174 73 14 52 7 171 -12 193 -29 35 -75 44 -214 44 -113 0 -135 -2 -135
-15z"/>
<path d="M6240 2245 c0 -12 18 -15 100 -15 82 0 100 3 100 15 0 12 -18 15
-100 15 -82 0 -100 -3 -100 -15z"/> -->
</g>
</svg>