<?xml version="1.0" encoding="utf-8"?>
<!-- Generator: Adobe Illustrator 24.2.1, SVG Export Plug-In . SVG Version: 6.00 Build 0)  -->
<svg version="1.1" id="Layer_1" xmlns="http://www.w3.org/2000/svg" xmlns:xlink="http://www.w3.org/1999/xlink" x="0px" y="0px"
	 viewBox="0 0 225.5 38" width="225.5" height="38" style="enable-background:new 0 0 225.5 38;" xml:space="preserve">
<style type="text/css">
	.st0{fill:#FFFFFF;}
</style>
<g>
	<path class="st0" d="M19.4,19c-2.4,1.3-5.1,2-7.8,2c-3.1,0.1-6.1-0.9-8.5-3c-4-3.7-4.2-9.9-0.5-13.9C3.1,3.5,3.7,3,4.4,2.6
		c2.2-1.5,4.8-2.2,7.5-2.1c2.5-0.1,5,0.5,7.2,1.8v4.4c-1-0.5-2-1-3.1-1.4c-1.2-0.4-2.5-0.6-3.8-0.6c-4.3,0-7.2,2.5-7.2,6
		s3,6.1,7.1,6.1c1.7,0,3.4-0.4,4.9-1.1c0.6-0.3,0.9-0.4,2.3-1.1V19H19.4z"/>
	<path class="st0" d="M46.1,10.7c0-3.6-2.5-6.1-6.3-6.1s-6.3,2.4-6.3,6.1s2.5,6.1,6.3,6.1S46.1,14.4,46.1,10.7 M48.1,3.7
		c1.9,1.8,3,4.4,3,7c0,2.9-1.3,5.6-3.5,7.5c-2.2,1.8-5,2.7-7.9,2.7c-3.1,0.1-6.1-1.1-8.4-3.2c-1.9-1.8-3-4.4-3-7
		c0-2.9,1.3-5.7,3.5-7.5s5-2.8,7.9-2.7C42.9,0.4,45.9,1.6,48.1,3.7"/>
	<polygon class="st0" points="80.8,20.7 76.6,20.7 65.6,7.9 65.6,20.7 60.6,20.7 60.6,0.8 65.2,0.8 75.8,12.9 75.8,0.8 80.8,0.8 	
		"/>
	<polygon class="st0" points="100.7,21 98.5,21 88.9,0.8 94.3,0.8 99.6,12.1 104.6,0.8 109.9,0.8 	"/>
	<polygon class="st0" points="132.8,20.7 118,20.7 118,0.8 132.5,0.8 132.5,4.4 123,4.4 123,8.6 132.1,8.6 132.1,12.2 123,12.2 
		123,17 132.8,17 	"/>
	<path class="st0" d="M147.4,8.9h2.3c1.3,0,3.1-0.3,3.1-2.3c0-1.5-1-2.3-2.8-2.3h-2.5L147.4,8.9z M150,0.8c1-0.1,2.1,0,3.1,0.2
		c2.7,0.5,4.7,2.8,4.7,5.5c0,2.2-1.4,4.2-3.4,4.9c1,0.5,1.9,1.7,2.9,3.7l0.8,1.7l0.5,1.1l0.6,1.3l0.5,1.1c0,0.1,0.1,0.2,0.1,0.3
		h-5.5l-0.1-0.2c-0.2-0.3-0.3-0.6-0.4-0.8l-0.4-0.9l-0.6-1.3l-0.8-1.7c-0.4-1.2-1.2-2.2-2.2-2.9c-0.6-0.3-1.2-0.4-1.8-0.3h-0.8v8.1
		h-5V0.8H150z"/>
	<path class="st0" d="M187.1,6.5c-2.3-1.2-4.9-1.8-7.5-1.8c-4.8,0-7.3,2.5-7.3,6.3c0,3.5,2.8,5.9,6.9,5.9c1.2,0,2.3-0.2,3.3-0.7
		v-2.3h-2.9v-3.6h7.8v8.2c-1.5,1.5-5,2.7-8.4,2.7c-7,0-11.9-4.2-11.9-10.2s4.9-10.3,12-10.3c1.9,0,3.8,0.3,5.6,0.8
		c0.8,0.2,1.5,0.5,2.3,0.9L187.1,6.5z"/>
	<polygon class="st0" points="212.4,20.7 197.7,20.7 197.7,0.8 212.2,0.8 212.2,4.4 202.7,4.4 202.7,8.6 211.8,8.6 211.8,12.2 
		202.7,12.2 202.7,17 212.4,17 	"/>
	<path class="st0" d="M220.5,3h-0.6v1.7h0.6c0.6,0,1-0.3,1-0.8S221.1,3.1,220.5,3 M221.3,7.7L220,5.5h-0.2v2.2h-1.3V2h2
		c1.5,0,2.2,0.5,2.2,1.7c0.1,0.8-0.5,1.6-1.3,1.7l1.3,2.2L221.3,7.7z M220.6,1.1c-2.1,0-3.8,1.7-3.8,3.8s1.7,3.8,3.8,3.8
		s3.8-1.7,3.8-3.8l0,0C224.4,2.8,222.7,1.1,220.6,1.1 M220.6,9.8c-2.7,0-4.9-2.2-4.9-4.9s2.2-4.9,4.9-4.9s4.9,2.2,4.9,4.9
		C225.5,7.6,223.3,9.8,220.6,9.8L220.6,9.8"/>
	<path class="st0" d="M58.5,30.7c-0.2-0.5-0.3-0.9-0.4-1.1l0,0c-0.1,0.2-0.2,0.6-0.4,1.2l-1,3.1h2.9L58.5,30.7z M55.3,37.8H54
		l3.5-9.7h1.4l3.4,9.7h-1.4l-1-2.8h-3.6L55.3,37.8z"/>
	<path class="st0" d="M70.7,34.6c0.3,0.4,0.7,1,0.7,1.1l0,0c0,0,0-0.7,0-1.6v-6h1.2v9.7h-1.2l-4.5-6.6c-0.3-0.4-0.7-1.1-0.8-1.2l0,0
		c0,0,0,0.6,0,1.2v6.5h-1.2V28h1.2L70.7,34.6z"/>
	<path class="st0" d="M83.7,30.7c-0.2-0.5-0.3-0.9-0.4-1.1l0,0c-0.1,0.2-0.2,0.6-0.4,1.2l-1,3.1h2.9L83.7,30.7z M80.5,37.8h-1.3
		l3.4-9.7H84l3.4,9.7h-1.3l-1-2.8h-3.6L80.5,37.8z"/>
	<path class="st0" d="M93.7,32.5c0.6,0,1.1,0,1.7-0.2c0.5-0.3,0.9-0.8,0.8-1.4c0-0.6-0.3-1.2-0.9-1.4c-0.5-0.2-1.1-0.3-1.7-0.2h-2.2
		v3.3L93.7,32.5L93.7,32.5z M91.5,37.8h-1.3v-9.7h3.6c0.7,0,1.4,0.1,2,0.3c1,0.4,1.7,1.4,1.6,2.5c0,1.4-1,2.6-2.4,2.7l2.7,4.2h-1.5
		l-2.7-4.2h-2L91.5,37.8z"/>
	<path class="st0" d="M104.1,32.5c0.6,0,1.1,0,1.7-0.2c0.5-0.3,0.9-0.8,0.8-1.4c0-0.6-0.3-1.2-0.8-1.4c-0.5-0.2-1.1-0.3-1.7-0.2
		h-2.2v3.3L104.1,32.5L104.1,32.5z M101.9,37.8h-1.2v-9.7h3.7c0.7,0,1.4,0.1,2,0.3c1,0.4,1.6,1.4,1.6,2.5c0,1.4-1.1,2.6-2.5,2.7
		l2.7,4.2h-1.6l-2.7-4.2h-2V37.8z"/>
	<path class="st0" d="M115,36.8c1.9,0,3.1-1.5,3.1-3.9S116.9,29,115,29s-3.1,1.5-3.1,3.9S113,36.8,115,36.8 M115,27.9
		c2.7,0,4.4,2.1,4.4,5s-1.7,5-4.4,5s-4.4-2.1-4.4-5S112.2,27.9,115,27.9"/>
	<path class="st0" d="M132,28.1h1.3l-2.8,9.7h-1l-1.7-5.9c-0.2-0.7-0.3-1.1-0.4-1.5c-0.1,0.5-0.2,0.9-0.4,1.5l-1.7,5.8h-1l-2.9-9.7
		h1.3l1.5,5.4c0.2,0.8,0.5,1.8,0.6,2.1c0.2-0.7,0.4-1.4,0.6-2.1l1.5-5.3h1l1.6,5.4c0.3,0.8,0.5,1.8,0.6,2c0,0,0.4-1.4,0.5-2.1
		L132,28.1z"/>
	<path class="st0" d="M147.7,35.6c-0.7,1.5-2.2,2.5-3.8,2.4c-2.6,0-4.4-1.9-4.4-5c0-3,1.7-5,4.4-5c1.6-0.1,3,0.8,3.8,2.1l-1.1,0.7
		c-0.4-1.1-1.5-1.9-2.7-1.8c-1.9,0-3.1,1.5-3.1,3.9c0,2.4,1.2,3.9,3.1,3.9c1.2,0,2.3-0.7,2.7-1.9L147.7,35.6z"/>
	<path class="st0" d="M154.4,36.8c1.9,0,3.1-1.5,3.1-3.9s-1.2-3.9-3.1-3.9s-3.1,1.5-3.1,3.9S152.5,36.8,154.4,36.8 M154.4,27.9
		c2.7,0,4.4,2.1,4.4,5s-1.7,5-4.4,5s-4.4-2.1-4.4-5S151.7,27.9,154.4,27.9"/>
	<path class="st0" d="M165.8,37.8l-2.2-6.6c-0.2-0.5-0.5-1.6-0.5-1.6l0,0c0,0,0,1.2,0,2v6.2h-1.2v-9.7h1.8l2.2,6.6
		c0.2,0.7,0.4,1.3,0.5,1.5c0.1-0.2,0.2-0.8,0.4-1.5l2.1-6.6h1.8v9.7h-1.2v-8.4l0,0c0,0-0.3,1.1-0.5,1.6l-2.1,6.8
		C166.9,37.8,165.8,37.8,165.8,37.8z"/>
	<path class="st0" d="M175.8,32.5h2.3c0.5,0,0.9,0,1.4-0.2c0.8-0.4,1.2-1.4,0.8-2.2c-0.2-0.4-0.5-0.6-0.8-0.8
		c-0.4-0.1-0.9-0.2-1.4-0.2h-2.3V32.5z M175.8,37.8h-1.3v-9.7h3.6c0.7,0,1.4,0.1,2,0.3c1,0.4,1.7,1.4,1.6,2.5c0,0.9-0.4,1.8-1.3,2.3
		c-0.8,0.4-1.6,0.6-2.5,0.5h-2.2L175.8,37.8z"/>
	<path class="st0" d="M187.2,30.7c-0.1-0.4-0.3-0.8-0.4-1.1l0,0c-0.1,0.2-0.2,0.6-0.4,1.2l-1.1,3.2h2.9L187.2,30.7z M184,37.8h-1.3
		l3.5-9.7h1.4l3.4,9.7h-1.3l-1-2.8H185L184,37.8z"/>
	<path class="st0" d="M199.4,34.6c0.3,0.4,0.7,1,0.7,1.1l0,0c0,0,0-0.7,0-1.6v-6h1.3v9.7h-1.2l-4.5-6.5c-0.3-0.4-0.7-1.1-0.8-1.2
		l0,0c0,0,0,0.6,0,1.2v6.5h-1.2v-9.7h1.2L199.4,34.6z"/>
	<polygon class="st0" points="208.7,37.7 207.4,37.7 207.4,33.8 203.9,28.1 205.4,28.1 208.1,32.6 211,28.1 212.4,28.1 208.7,33.8 	
		"/>
</g>
</svg>
